<?xml version="1.0" encoding="utf-8"?>
<!-- Generator: Adobe Illustrator 24.0.1, SVG Export Plug-In . SVG Version: 6.00 Build 0)  -->
<svg version="1.1" id="Calque_1" xmlns="http://www.w3.org/2000/svg" xmlns:xlink="http://www.w3.org/1999/xlink" x="0px" y="0px"
	 viewBox="0 0 98.2 103.5" style="enable-background:new 0 0 98.2 103.5;" xml:space="preserve">
<style type="text/css">
	.st0{fill:#FFFFFF;}
</style>
<path class="st0" d="M75.3,15.7c6.4,4.3,11.4,9.9,15,16.7s5.4,14.1,5.4,21.8c0,6.4-1.2,12.4-3.6,18.1c-2.4,5.6-5.8,10.5-10,14.8
	c-4.2,4.2-9.2,7.6-14.8,10c-5.7,2.4-11.7,3.7-18.1,3.7c-6.4,0-12.4-1.2-18.1-3.7c-5.6-2.4-10.5-5.8-14.8-10
	c-4.2-4.2-7.5-9.2-10-14.8c-2.4-5.6-3.7-11.7-3.7-18.1c0-7.8,1.8-15,5.4-21.8S16.5,20,23,15.7c0.5-0.4,1.1-0.5,1.7-0.4
	c0.8,0.2,1.3,0.5,1.6,1l5.6,8.2c0.4,0.5,0.5,1.1,0.4,1.7c-0.2,0.7-0.5,1.2-1,1.6c-4.4,3-7.8,6.8-10.3,11.4c-2.4,4.6-3.7,9.6-3.7,15
	c0,4.3,0.8,8.5,2.5,12.3c1.6,3.9,3.9,7.3,6.8,10.1c2.9,2.9,6.3,5.1,10.1,6.8c3.9,1.7,8,2.5,12.3,2.5c4.3,0,8.5-0.8,12.4-2.5
	c3.9-1.7,7.3-3.9,10.2-6.8c2.9-2.9,5.2-6.2,6.8-10.1c1.6-3.9,2.5-8,2.5-12.4c0-5.4-1.2-10.4-3.7-15c-2.5-4.6-5.9-8.4-10.3-11.4
	c-0.6-0.4-0.9-0.9-1-1.5c-0.2-0.7,0-1.3,0.4-1.8l5.5-8.2c0.4-0.5,0.9-0.8,1.6-0.9C74.1,15.3,74.7,15.4,75.3,15.7z M44.2,51.7
	c-0.7,0-1.2-0.2-1.7-0.7c-0.5-0.5-0.7-1-0.7-1.7v-44c0-0.7,0.2-1.2,0.7-1.7c0.5-0.5,1-0.7,1.7-0.7H54c0.7,0,1.2,0.2,1.7,0.7
	c0.5,0.5,0.7,1,0.7,1.7v44c0,0.7-0.2,1.2-0.7,1.7c-0.5,0.5-1,0.7-1.7,0.7H44.2L44.2,51.7z"/>
</svg>
